<svg width="39" height="37" viewBox="0 0 39 37" fill="none" xmlns="http://www.w3.org/2000/svg">
<path d="M36.8021 8.64188L19.6979 12.0959C19.5673 12.1223 19.4327 12.1223 19.3021 12.0959L2.19795 8.64188C1.57864 8.51681 1 8.99028 1 9.62209V32.0263C1 32.5688 1.43509 33.012 1.97739 33.0291C9.45964 33.2643 13.3385 33.9894 19.2518 35.809C19.4135 35.8588 19.5887 35.8673 19.7544 35.833C25.9726 34.5486 29.933 33.9127 37.1086 33.1015C37.615 33.0442 38 32.6161 38 32.1065V9.62209C38 8.99028 37.4214 8.51681 36.8021 8.64188Z" stroke="#333333" stroke-width="2"/>
<path d="M19.6671 11.7731L5.29844 8.59827L4.96428 30.981L19.6671 33.0447V22.4733V11.7731Z" fill="white"/>
<path d="M19.6671 11.7731L34.0357 8.59827V30.981C28.2964 31.0044 25.1569 31.4963 19.6671 33.0447M19.6671 11.7731L5.29844 8.59827L4.96428 30.981L19.6671 33.0447M19.6671 11.7731V22.4733V33.0447" stroke="#E06166" stroke-width="3"/>
<path d="M19.6291 11.7731C15.9898 9.4944 13.5914 8.61814 8.52608 7.93751V28.4196C12.174 28.2901 14.4966 30.8756 19.6291 32.0536V22.4732V11.7731Z" fill="white"/>
<path d="M32.0536 7.27679C26.8612 8.04141 24.1275 8.98662 19.6291 11.7731V22.4732V32.0536C24.7361 29.4456 32.7143 30.4018 32.7143 29.4107C32.7143 28.4196 32.0536 7.27679 32.0536 7.27679Z" fill="white"/>
<path d="M19.6291 11.7731C24.1275 8.98662 26.8612 8.04141 32.0536 7.27679C32.0536 7.27679 32.7143 28.4196 32.7143 29.4107C32.7143 30.4018 24.7361 29.4456 19.6291 32.0536M19.6291 11.7731C15.9898 9.4944 13.5914 8.61814 8.52608 7.93751V28.4196C12.174 28.2901 14.4966 30.8756 19.6291 32.0536M19.6291 11.7731V22.4732V32.0536" stroke="#E06166" stroke-width="2"/>
<path d="M24.6479 12.9996C25.092 10.9717 26.4243 8.07472 26.4243 8.07472L26.9525 10.9717C27.6124 6.89799 31.2875 5.03512 37.4127 1C37.743 3.64286 35.7609 7.27678 35.7609 7.27678L34.1958 10.682L37.0823 9.81291C36.5581 11.1777 36.09 11.9781 34.6399 13.579L30.8651 15.6069L33.7517 16.1863C32.5623 17.8555 31.8445 18.6139 29.9769 17.9244C28.4858 17.4916 27.6718 17.8927 27.3124 17.9244C25.9202 18.6958 25.1103 19.2574 23.5377 20.8214C26.7911 15.625 33.4043 5.33249 37.4127 1L32.127 6.94643L23.9818 16.7657C23.9818 16.7657 24.2038 15.0275 24.6479 12.9996Z" fill="#62C2CF"/>
<path d="M37.4127 1C31.2875 5.03512 27.6124 6.89799 26.9525 10.9717L26.4243 8.07472C26.4243 8.07472 25.092 10.9717 24.6479 12.9996C24.2038 15.0275 23.9818 16.7657 23.9818 16.7657L32.127 6.94643L37.4127 1ZM37.4127 1C37.743 3.64286 35.7609 7.27678 35.7609 7.27678L34.1958 10.682L37.0823 9.81291C36.5581 11.1777 36.09 11.9781 34.6399 13.579L30.8651 15.6069L33.7517 16.1863C32.5623 17.8555 31.8445 18.6139 29.9769 17.9244C28.4858 17.4916 27.6718 17.8927 27.3124 17.9244C25.9202 18.6958 25.1103 19.2574 23.5377 20.8214C26.7911 15.625 33.4043 5.33249 37.4127 1Z" stroke="#62C2CF"/>
</svg>
